<svg class="sg-chart" id="fig-bls" viewBox="0 0 720 300" role="img" aria-labelledby="fig-bls-t fig-bls-d" preserveAspectRatio="xMidYMid meet" data-hover='{"x":[0.3,0.300704,0.30141,0.302118,0.302827,0.303538,0.30425,0.304964,0.30568,0.306398,0.307117,0.307838,0.30856,0.309285,0.310011,0.310738,0.311468,0.312199,0.312932,0.313666,0.314403,0.315141,0.31588,0.316622,0.317365,0.31811,0.318857,0.319605,0.320356,0.321108,0.321861,0.322617,0.323374,0.324133,0.324894,0.325657,0.326421,0.327187,0.327955,0.328725,0.329497,0.33027,0.331046,0.331823,0.332602,0.333382,0.334165,0.334949,0.335735,0.336524,0.337314,0.338105,0.338899,0.339694,0.340492,0.341291,0.342092,0.342895,0.3437,0.344507,0.345316,0.346126,0.346939,0.347753,0.348569,0.349388,0.350208,0.35103,0.351854,0.35268,0.353508,0.354337,0.355169,0.356003,0.356839,0.357676,0.358516,0.359357,0.360201,0.361046,0.361894,0.362743,0.363595,0.364448,0.365304,0.366161,0.367021,0.367882,0.368746,0.369612,0.370479,0.371349,0.37222,0.373094,0.37397,0.374848,0.375728,0.37661,0.377494,0.37838,0.379268,0.380158,0.381051,0.381945,0.382842,0.38374,0.384641,0.385544,0.386449,0.387356,0.388265,0.389177,0.39009,0.391006,0.391924,0.392844,0.393766,0.39469,0.395617,0.396545,0.397476,0.398409,0.399345,0.400282,0.401222,0.402163,0.403107,0.404054,0.405002,0.405953,0.406906,0.407861,0.408818,0.409778,0.41074,0.411704,0.41267,0.413639,0.41461,0.415583,0.416559,0.417537,0.418517,0.419499,0.420484,0.421471,0.42246,0.423452,0.424446,0.425442,0.426441,0.427442,0.428445,0.429451,0.430459,0.431469,0.432482,0.433497,0.434515,0.435535,0.436557,0.437582,0.438609,0.439639,0.440671,0.441705,0.442742,0.443781,0.444823,0.445867,0.446914,0.447963,0.449014,0.450068,0.451125,0.452184,0.453245,0.454309,0.455376,0.456444,0.457516,0.45859,0.459666,0.460745,0.461827,0.462911,0.463998,0.465087,0.466178,0.467273,0.46837,0.469469,0.470571,0.471676,0.472783,0.473893,0.475005,0.47612,0.477238,0.478358,0.479481,0.480606,0.481734,0.482865,0.483999,0.485135,0.486274,0.487415,0.488559,0.489706,0.490856,0.492008,0.493163,0.49432,0.495481,0.496644,0.49781,0.498978,0.500149,0.501323,0.5025,0.50368,0.504862,0.506047,0.507235,0.508426,0.509619,0.510815,0.512014,0.513216,0.514421,0.515629,0.516839,0.518052,0.519268,0.520487,0.521709,0.522933,0.524161,0.525391,0.526625,0.527861,0.5291,0.530342,0.531587,0.532835,0.534085,0.535339,0.536596,0.537855,0.539118,0.540383,0.541652,0.542923,0.544198,0.545475,0.546756,0.548039,0.549325,0.550615,0.551907,0.553203,0.554501,0.555803,0.557108,0.558415,0.559726,0.56104,0.562357,0.563677,0.565,0.566327,0.567656,0.568988,0.570324,0.571663,0.573005,0.57435,0.575698,0.577049,0.578404,0.579762,0.581122,0.582487,0.583854,0.585224,0.586598,0.587975,0.589355,0.590739,0.592125,0.593515,0.594908,0.596305,0.597705,0.599108,0.600514,0.601924,0.603337,0.604753,0.606172,0.607595,0.609022,0.610451,0.611884,0.61332,0.61476,0.616203,0.61765,0.619099,0.620553,0.622009,0.623469,0.624933,0.6264,0.62787,0.629344,0.630821,0.632302,0.633786,0.635274,0.636765,0.63826,0.639758,0.64126,0.642765,0.644274,0.645786,0.647302,0.648822,0.650345,0.651871,0.653402,0.654935,0.656473,0.658014,0.659558,0.661106,0.662658,0.664214,0.665773,0.667336,0.668902,0.670472,0.672046,0.673624,0.675205,0.67679,0.678379,0.679971,0.681567,0.683167,0.684771,0.686378,0.687989,0.689604,0.691223,0.692846,0.694472,0.696102,0.697736,0.699374,0.701016,0.702661,0.70431,0.705964,0.707621,0.709282,0.710947,0.712616,0.714288,0.715965,0.717646,0.71933,0.721019,0.722711,0.724408,0.726108,0.727813,0.729521,0.731234,0.73295,0.734671,0.736395,0.738124,0.739856,0.741593,0.743334,0.745079,0.746828,0.748581,0.750338,0.752099,0.753865,0.755634,0.757408,0.759186,0.760968,0.762754,0.764545,0.766339,0.768138,0.769941,0.771749,0.77356,0.775376,0.777196,0.779021,0.780849,0.782682,0.784519,0.786361,0.788207,0.790057,0.791911,0.79377,0.795634,0.797501,0.799373,0.80125,0.803131,0.805016,0.806905,0.8088,0.810698,0.812601,0.814509,0.81642,0.818337,0.820258,0.822183,0.824113,0.826048,0.827987,0.82993,0.831878,0.833831,0.835788,0.83775,0.839717,0.841688,0.843664,0.845644,0.847629,0.849619,0.851613,0.853612,0.855616,0.857624,0.859638,0.861655,0.863678,0.865705,0.867738,0.869774,0.871816,0.873863,0.875914,0.87797,0.880031,0.882097,0.884167,0.886243,0.888323,0.890408,0.892498,0.894593,0.896693,0.898798,0.900908,0.903023,0.905142,0.907267,0.909397,0.911531,0.913671,0.915816,0.917966,0.92012,0.92228,0.924445,0.926615,0.92879,0.93097,0.933156,0.935346,0.937542,0.939742,0.941948,0.944159,0.946376,0.948597,0.950824,0.953056,0.955293,0.957535,0.959783,0.962036,0.964294,0.966558,0.968827,0.971101,0.97338,0.975665,0.977956,0.980251,0.982552,0.984859,0.98717,0.989488,0.99181,0.994138,0.996472,0.998811,1.001156,1.003506,1.005861,1.008222,1.010589,1.012961,1.015339,1.017722,1.020111,1.022506,1.024906,1.027312,1.029723,1.032141,1.034563,1.036992,1.039426,1.041866,1.044312,1.046763,1.04922,1.051683,1.054152,1.056626,1.059106,1.061593,1.064084,1.066582,1.069086,1.071595,1.074111,1.076632,1.079159,1.081693,1.084232,1.086777,1.089328,1.091885,1.094448,1.097017,1.099592,1.102173,1.10476,1.107354,1.109953,1.112558,1.11517,1.117788,1.120412,1.123042,1.125678,1.12832,1.130969,1.133624,1.136285,1.138952,1.141625,1.144305,1.146991,1.149684,1.152382,1.155087,1.157799,1.160517,1.163241,1.165971,1.168708,1.171452,1.174201,1.176958,1.17972,1.18249,1.185265,1.188048,1.190836,1.193632,1.196434,1.199242,1.202057,1.204879,1.207707,1.210542,1.213384,1.216232,1.219087,1.221948,1.224817,1.227692,1.230574,1.233462,1.236358,1.23926,1.242169,1.245085,1.248007,1.250937,1.253873,1.256816,1.259767,1.262724,1.265688,1.268659,1.271637,1.274622,1.277614,1.280613,1.283619,1.286632,1.289652,1.292679,1.295714,1.298755,1.301804,1.30486,1.307923,1.310993,1.31407,1.317155,1.320247,1.323346,1.326452,1.329566,1.332687,1.335815,1.338951,1.342094,1.345244,1.348402,1.351567,1.35474,1.35792,1.361107,1.364302,1.367505,1.370715,1.373932,1.377157,1.38039,1.38363,1.386878,1.390134,1.393397,1.396668,1.399946,1.403232,1.406526,1.409828,1.413137,1.416454,1.419779,1.423112,1.426453,1.429801,1.433157,1.436521,1.439893,1.443273,1.446661,1.450057,1.453461,1.456873,1.460292,1.46372,1.467156,1.4706,1.474052,1.477512,1.48098,1.484457,1.487941,1.491434,1.494935,1.498444,1.501962,1.505487,1.509021,1.512563,1.516114,1.519673,1.52324,1.526815,1.530399,1.533992,1.537593,1.541202,1.54482,1.548446,1.552081,1.555724,1.559376,1.563036,1.566705,1.570383,1.574069,1.577764,1.581468,1.58518,1.588901,1.592631,1.596369,1.600116,1.603872,1.607637,1.611411,1.615193,1.618985,1.622785,1.626595,1.630413,1.63424,1.638076,1.641921,1.645775,1.649639,1.653511,1.657392,1.661283,1.665182,1.669091,1.673009,1.676936,1.680873,1.684818,1.688773,1.692737,1.696711,1.700693,1.704686,1.708687,1.712698,1.716718,1.720748,1.724787,1.728836,1.732894,1.736962,1.741039,1.745126,1.749222,1.753329,1.757444,1.76157,1.765705,1.769849,1.774004,1.778168,1.782342,1.786526,1.790719,1.794923,1.799136,1.803359,1.807593,1.811836,1.816089,1.820352,1.824625,1.828908,1.833201,1.837504,1.841817,1.846141,1.850474,1.854818,1.859172,1.863536,1.86791,1.872295,1.87669,1.881095,1.885511,1.889937,1.894373,1.89882,1.903277,1.907745,1.912223,1.916712,1.921211,1.925721,1.930241,1.934772,1.939314,1.943866,1.948429,1.953002,1.957587,1.962182,1.966788,1.971405,1.976032,1.980671,1.98532,1.98998,1.994651,1.999334,2.004027,2.008731,2.013446,2.018172,2.02291,2.027658,2.032418,2.037189,2.041971,2.046764,2.051569,2.056384,2.061211,2.06605,2.070899,2.075761,2.080633,2.085517,2.090413,2.09532,2.100238,2.105168,2.11011,2.115063,2.120028,2.125004,2.129992,2.134992,2.140004,2.145027,2.150062,2.155109,2.160168,2.165239,2.170321,2.175416,2.180522,2.185641,2.190771,2.195914,2.201068,2.206235,2.211414,2.216605,2.221808,2.227023,2.232251,2.237491,2.242743,2.248008,2.253284,2.258574,2.263875,2.269189,2.274516,2.279855,2.285207,2.290571,2.295948,2.301337,2.306739,2.312154,2.317581,2.323022,2.328475,2.33394,2.339419,2.34491,2.350415,2.355932,2.361462,2.367005,2.372562,2.378131,2.383713,2.389309,2.394917,2.400539,2.406174,2.411822,2.417483,2.423158,2.428846,2.434548,2.440262,2.44599,2.451732,2.457487,2.463256,2.469038,2.474834,2.480643,2.486466,2.492302,2.498153,2.504017,2.509895,2.515786,2.521692,2.527611,2.533544,2.539491,2.545453,2.551428,2.557417,2.56342,2.569437,2.575469,2.581514,2.587574,2.593648,2.599736,2.605838,2.611955,2.618087,2.624232,2.630392,2.636567,2.642756,2.648959,2.655177,2.66141,2.667657,2.673919,2.680196,2.686487,2.692793,2.699114,2.70545,2.711801,2.718166,2.724547,2.730942,2.737353,2.743778,2.750219,2.756674,2.763145,2.769631,2.776133,2.782649,2.789181,2.795728,2.802291,2.808869,2.815462,2.822071,2.828696,2.835336,2.841991,2.848662,2.855349,2.862052,2.86877,2.875504,2.882254,2.88902,2.895801,2.902599,2.909412,2.916241,2.923087,2.929948,2.936826,2.94372,2.95063,2.957556,2.964498,2.971457,2.978432,2.985424,2.992432,2.999456,3.006497,3.013554,3.020628,3.027718,3.034826,3.041949,3.04909,3.056247,3.063421,3.070612,3.07782,3.085045,3.092287,3.099545,3.106821,3.114114,3.121424,3.128751,3.136095,3.143457,3.150835,3.158232,3.165645,3.173076,3.180524,3.18799,3.195474,3.202974,3.210493,3.218029,3.225583,3.233155,3.240744,3.248351,3.255976,3.263619,3.27128,3.278959,3.286656,3.294371,3.302104,3.309855,3.317624,3.325412,3.333218,3.341042,3.348885,3.356746,3.364625,3.372523,3.38044,3.388375,3.396329,3.404301,3.412292,3.420302,3.428331,3.436378,3.444445,3.45253,3.460634,3.468758,3.4769,3.485062,3.493242,3.501442,3.509661,3.5179,3.526158,3.534435,3.542731,3.551047,3.559383,3.567738,3.576113,3.584507,3.592921,3.601355,3.609809,3.618282,3.626776,3.635289,3.643822,3.652376,3.660949,3.669543,3.678156,3.68679,3.695445,3.704119,3.712814,3.721529,3.730265,3.739021,3.747798,3.756596,3.765414,3.774252,3.783112,3.791992,3.800893,3.809816,3.818759,3.827723,3.836708,3.845714,3.854741,3.863789,3.872859,3.88195,3.891062,3.900196,3.909351,3.918528,3.927726,3.936946,3.946187,3.95545,3.964735,3.974042,3.98337,3.992721,4.002093,4.011488,4.020904,4.030342,4.039803,4.049286,4.058791,4.068318,4.077868,4.08744,4.097035,4.106652,4.116292,4.125955,4.13564,4.145347,4.155078,4.164832,4.174608,4.184407,4.194229,4.204075,4.213943,4.223835,4.23375,4.243688,4.253649,4.263634,4.273642,4.283674,4.29373,4.303808,4.313911,4.324037,4.334187,4.344361,4.354559,4.364781,4.375026,4.385296,4.39559,4.405908,4.41625,4.426617,4.437008,4.447423,4.457863,4.468327,4.478816,4.489329,4.499867,4.51043,4.521017,4.53163,4.542267,4.55293,4.563617,4.574329,4.585067,4.59583,4.606618,4.617431,4.62827,4.639134,4.650024,4.660939,4.67188,4.682847,4.693839,4.704857,4.715901,4.726971,4.738067,4.749189,4.760337,4.771511,4.782711,4.793938,4.805191,4.816471,4.827777,4.839109,4.850468,4.861854,4.873267,4.884706,4.896172,4.907665,4.919185,4.930732,4.942306,4.953908,4.965536,4.977192,4.988876],"y":[0.000912,0.002143,0.003519,0.003849,0.002621,0.001659,0.000784,0.000901,0.000858,0.000474,0.002022,0.004915,0.011364,0.012776,0.001931,0.002134,0.012505,0.067402,0.173121,0.240085,0.198368,0.098843,0.027931,0.006702,0.000629,0.005898,0.013493,0.014627,0.004679,0.001127,0.000525,0.000826,0.001242,0.001569,0.000749,0.001578,0.002714,0.002915,0.002739,0.00158,0.000831,0.000476,0.000874,0.003578,0.00056,0.000852,0.004341,0.003752,0.004685,0.001097,0.001142,0.000827,0.000646,0.000762,0.00076,0.000665,0.001093,0.001534,0.001937,0.001538,0.003747,0.00068,0.000418,0.001148,0.000586,0.000801,0.001622,0.001073,0.001211,0.008573,0.007405,0.000877,0.001094,0.000488,0.000442,0.000855,0.001636,0.000769,0.000569,0.00104,0.000876,0.001194,0.001491,0.00122,0.000651,0.001263,0.000979,0.004242,0.001792,0.000416,0.000609,0.000621,0.002636,0.003951,0.000903,0.004332,0.026779,0.048569,0.025523,0.004838,0.000626,0.00444,0.0022,0.000801,0.000874,0.00216,0.00049,0.002066,0.001288,0.000521,0.000321,0.00045,0.000819,0.00083,0.001053,0.001015,0.00151,0.001703,0.001096,0.000971,0.000941,0.000465,0.000752,0.001353,0.000629,0.003111,0.013089,0.011339,0.001768,0.002859,0.001217,0.001167,0.000655,0.001188,0.000799,0.000709,0.001061,0.001596,0.000901,0.002007,0.001324,0.004573,0.006615,0.00213,0.000519,0.000653,0.001077,0.000975,0.000358,0.000827,0.000946,0.001334,0.001116,0.001887,0.001984,0.002493,0.002979,0.000507,0.000456,0.002483,0.001178,0.000858,0.000682,0.0006,0.001188,0.001477,0.001983,0.002201,0.003896,0.003774,0.001952,0.000452,0.000897,0.001181,0.002816,0.001615,0.001266,0.000234,0.001055,0.001984,0.004281,0.010281,0.014449,0.017173,0.007826,0.000833,0.002599,0.012692,0.023302,0.061914,0.179188,0.349787,0.518878,0.410492,0.22243,0.082456,0.030457,0.014378,0.005635,0.001126,0.003414,0.013288,0.014544,0.009416,0.006066,0.002538,0.001623,0.00056,0.000282,0.001343,0.001931,0.001613,0.002218,0.002348,0.000873,0.001152,0.004207,0.004566,0.002926,0.003217,0.003459,0.001208,0.001025,0.001354,0.000369,0.000599,0.00088,0.001148,0.001129,0.001141,0.001212,0.000927,0.002827,0.003666,0.002195,0.001305,0.001552,0.003138,0.001652,0.000446,0.000991,0.00033,0.001062,0.0011,0.001376,0.000494,0.001323,0.000702,0.005716,0.014771,0.008491,0.001915,0.002186,0.001101,0.001699,0.000971,0.001051,0.000592,0.000216,0.000783,0.001052,0.001111,0.001581,0.001022,0.000626,0.002413,0.004301,0.001601,0.005468,0.02536,0.032479,0.018127,0.005744,0.000989,0.002853,0.002116,0.000681,0.001575,0.001308,0.001027,0.002462,0.000745,0.000589,0.00098,0.001047,0.002315,0.00188,0.00484,0.003751,0.001081,0.001509,0.00052,0.001339,0.000534,0.00038,0.000343,0.000773,0.001616,0.001816,0.001907,0.000807,0.000858,0.000996,0.001317,0.001827,0.00039,0.001864,0.003567,0.004722,0.004292,0.00119,0.00234,0.011672,0.033599,0.084249,0.109236,0.063018,0.024851,0.005821,0.001532,0.001234,0.004642,0.00541,0.003543,0.001254,0.00105,0.002142,0.002391,0.001593,0.001133,0.000539,0.00139,0.001179,0.001382,0.001063,0.001426,0.000776,0.000794,0.000712,0.001143,0.001147,0.001325,0.002334,0.003028,0.007696,0.005661,0.00139,0.003028,0.001112,0.001806,0.001547,0.000661,0.001089,0.001929,0.001573,0.00075,0.001016,0.000525,0.000529,0.001797,0.003221,0.001892,0.001234,0.012224,0.031174,0.056419,0.03834,0.015077,0.002132,0.003279,0.005616,0.00423,0.000817,0.001163,0.002066,0.001213,0.000772,0.00202,0.001439,0.000779,0.001328,0.001643,0.000822,0.001305,0.000873,0.00117,0.002396,0.001333,0.002646,0.003363,0.001453,0.008524,0.02305,0.029532,0.014917,0.002508,0.001353,0.002193,0.001167,0.001166,0.001155,0.000649,0.001887,0.001538,0.000774,0.000848,0.001208,0.001237,0.001037,0.008018,0.012237,0.009233,0.001569,0.002486,0.002246,0.00158,0.001975,0.00175,0.001687,0.001131,0.000757,0.003329,0.006324,0.004057,0.000816,0.001291,0.001023,0.001587,0.001466,0.001035,0.002421,0.003147,0.001315,0.001132,0.000839,0.001219,0.00137,0.002857,0.002625,0.001423,0.002308,0.002311,0.002653,0.003081,0.002369,0.001529,0.000699,0.000791,0.000792,0.000718,0.002851,0.001111,0.001839,0.002137,0.002111,0.002638,0.002064,0.001169,0.000758,0.000228,0.000709,0.000763,0.001468,0.001917,0.002504,0.003615,0.004519,0.006014,0.006557,0.012158,0.010906,0.011336,0.007131,0.001354,0.000998,0.001828,0.002982,0.006047,0.007203,0.012325,0.016215,0.023638,0.041182,0.067367,0.115842,0.231032,0.490493,0.843163,0.966273,0.668969,0.364759,0.156741,0.088715,0.058813,0.032435,0.023943,0.02064,0.013572,0.00687,0.004914,0.003175,0.001767,0.000684,0.000818,0.00612,0.008843,0.009418,0.008203,0.006075,0.005981,0.003572,0.003244,0.003481,0.003351,0.001544,0.001541,0.001208,0.000954,0.000566,0.000379,0.000666,0.001557,0.001104,0.001704,0.0016,0.005975,0.002329,0.002017,0.001651,0.001385,0.001044,0.000825,0.001463,0.001856,0.000781,0.001562,0.002584,0.003058,0.006437,0.003407,0.002032,0.002259,0.002021,0.001898,0.005022,0.006466,0.002529,0.001349,0.001776,0.000584,0.001449,0.000476,0.002735,0.007442,0.006528,0.003856,0.00163,0.001844,0.000753,0.002787,0.000973,0.002445,0.002242,0.001297,0.005554,0.015359,0.014804,0.006569,0.001596,0.001447,0.001927,0.001283,0.003127,0.002186,0.001925,0.002791,0.001053,0.001714,0.003641,0.002054,0.001614,0.008138,0.024711,0.030792,0.023172,0.006383,0.001079,0.000784,0.00226,0.002659,0.000634,0.000449,0.00177,0.000871,0.005598,0.008704,0.004152,0.001049,0.001353,0.001696,0.001753,0.001234,0.001612,0.002256,0.003861,0.002306,0.000558,0.003017,0.010969,0.031013,0.067215,0.062869,0.033774,0.010563,0.003734,0.001002,0.004533,0.003415,0.002585,0.000911,0.0009,0.002195,0.002503,0.003392,0.003949,0.000669,0.000806,0.00275,0.002453,0.001922,0.004875,0.01143,0.009186,0.00504,0.000632,0.002707,0.001386,0.002721,0.002588,0.003099,0.00396,0.00286,0.001823,0.002157,0.002964,0.003606,0.001118,0.000629,0.001528,0.002543,0.005089,0.004667,0.006319,0.00354,0.001695,0.001905,0.005241,0.014566,0.034417,0.080687,0.139116,0.167701,0.104928,0.050965,0.02177,0.009118,0.003902,0.001957,0.000442,0.002873,0.004573,0.004137,0.001879,0.001609,0.001441,0.000662,0.000855,0.001422,0.002178,0.001621,0.004833,0.005686,0.001431,0.000526,0.002144,0.003587,0.001697,0.006511,0.013741,0.012382,0.004163,0.000599,0.001181,0.001347,0.003067,0.005012,0.001602,0.000964,0.001871,0.00313,0.003984,0.002241,0.00255,0.008783,0.022151,0.04201,0.047231,0.02869,0.011225,0.004527,0.00141,0.003899,0.004193,0.002636,0.001807,0.001383,0.001524,0.004739,0.006976,0.002516,0.0012,0.002168,0.004278,0.001615,0.003234,0.009274,0.017741,0.018433,0.009313,0.003199,0.000706,0.002944,0.003315,0.001878,0.002146,0.003076,0.001372,0.007,0.01677,0.017106,0.006294,0.001005,0.001167,0.002107,0.000658,0.004099,0.008078,0.006616,0.002835,0.001822,0.001733,0.004532,0.006975,0.002634,0.002348,0.001849,0.002618,0.001817,0.001608,0.002412,0.002539,0.002529,0.00295,0.002996,0.003324,0.006686,0.005488,0.006007,0.003708,0.000762,0.001066,0.001128,0.002437,0.003185,0.00617,0.005803,0.01064,0.014397,0.025235,0.043585,0.069693,0.138817,0.273662,0.461425,0.402872,0.250967,0.127933,0.072879,0.040311,0.023191,0.015985,0.011805,0.006785,0.006311,0.002823,0.00247,0.002143,0.000844,0.0009,0.001702,0.004381,0.004696,0.004845,0.004747,0.004894,0.00205,0.002773,0.002829,0.002061,0.003535,0.003082,0.001564,0.002703,0.003593,0.001899,0.002545,0.002181,0.008269,0.007725,0.003811,0.002498,0.003123,0.002183,0.006121,0.011918,0.00895,0.002903,0.001266,0.00356,0.003511,0.000391,0.002791,0.008071,0.022253,0.026648,0.011518,0.004199,0.001915,0.003952,0.001618,0.003423,0.003152,0.001742,0.003943,0.001262,0.001436,0.004558,0.009347,0.018285,0.028798,0.024605,0.014986,0.005422,0.001769,0.00159,0.00583,0.002764,0.006215,0.001286,0.001663,0.007045,0.014206,0.010883,0.003896,0.000633,0.001879,0.004817,0.004573,0.003729,0.005826,0.005445,0.003913,0.001049,0.002251,0.004603,0.011293,0.028145,0.057753,0.099115,0.104351,0.069874,0.031902,0.013882,0.006863,0.003351,0.001669,0.002969,0.003622,0.006174,0.002864,0.006154,0.005065,0.001605,0.001065,0.003842,0.009897,0.008125,0.002928,0.001748,0.005264,0.005025,0.000591,0.000721,0.003164,0.011667,0.023051,0.037352,0.029162,0.015642,0.004288,0.001074,0.003445,0.004217,0.004243,0.005171,0.001841,0.000684,0.004131,0.010357,0.018909,0.014799,0.0076,0.00166,0.004865,0.0052,0.002433,0.005542,0.006273,0.005608,0.001344,0.00147,0.004842,0.006578,0.00379,0.001691,0.006823,0.006738,0.003042,0.007595,0.005432,0.007562,0.003258,0.000734,0.000805,0.001883,0.002549,0.003208,0.005151,0.004963,0.00909,0.016525,0.018193,0.029941,0.060321,0.106522,0.208653,0.326078,0.282913,0.1757,0.102423,0.046636,0.026725,0.017092,0.012621,0.008744,0.00541,0.004862,0.003398,0.001676,0.001567,0.001447,0.002452,0.005083,0.004699,0.007805,0.004505,0.008934,0.006375,0.003902,0.009222,0.008123,0.00337,0.002217,0.007113,0.00893,0.004957,0.001966,0.000914,0.002484,0.007153,0.018809,0.017737,0.006877,0.002319,0.002688,0.008182,0.006143,0.00124,0.003074,0.00757,0.015111,0.025113,0.020266,0.01101,0.005255,0.002185,0.006421,0.006465,0.003264,0.010172,0.00898,0.005695,0.003334,0.008868,0.006948,0.001291,0.00114,0.002452,0.004854,0.014373,0.024527,0.041376,0.058694,0.051079,0.026905,0.015268,0.005689,0.003095,0.001313,0.001571,0.00634,0.010218,0.003483,0.007747,0.010398,0.006829,0.002253,0.001328,0.001565,0.003792,0.009116,0.02403,0.031135,0.019223,0.009403,0.004033,0.001958,0.00844,0.007851,0.002424,0.00726,0.013526,0.013879,0.007965,0.002969,0.001768,0.00664,0.014503,0.009864,0.003617,0.008708,0.012721,0.006033,0.007395,0.007424,0.002719,0.002442,0.002668,0.002848,0.002831,0.004959,0.006111,0.009428,0.013118,0.020796,0.026309,0.05356,0.102389,0.179165,0.256734,0.191016,0.123807,0.060291,0.028669,0.017242,0.013781,0.010181,0.006702,0.004023,0.003846,0.002109,0.002138,0.002394,0.00205,0.001836,0.002526,0.011945,0.011082,0.003595,0.009464,0.014416,0.006354,0.002137,0.005073,0.011896,0.015901,0.009887,0.003796,0.002263,0.00212,0.002989,0.005205,0.01619,0.029493,0.02029,0.007946,0.003889,0.002467,0.003562,0.013809,0.014476,0.006978,0.002548,0.002325,0.002327,0.004214,0.008022,0.018926,0.044674,0.078113,0.066787,0.034632,0.01476,0.006548,0.002709,0.00249,0.00237,0.003918,0.012291,0.014521,0.00476,0.003379,0.003811,0.008635,0.012627,0.014881,0.012432,0.006253,0.002642,0.002719,0.00296,0.009792,0.020306,0.016657,0.008748,0.002858,0.011783,0.018954,0.009215,0.003124,0.003137,0.003709,0.003152,0.004076,0.004736,0.004664,0.004769,0.00832,0.009499,0.016676,0.020674,0.035375,0.083549,0.132259,0.192365,0.158463,0.099027,0.058954,0.026251,0.01337,0.012619,0.008533,0.008288,0.00437,0.004782,0.005499,0.005066,0.004397,0.004601,0.004686,0.009152,0.014538,0.006921,0.00442,0.017094,0.023728,0.018223,0.004822,0.004739,0.005745],"xl":"Período (d)","yl":"Potência","xd":4,"yd":3,"color":"#5B3FBF","sx":[-0.5228787452803376,0.6989700043360189,70,696],"sy":[0,1.08,248,18],"logx":true}' xmlns:c2pa="http://c2pa.org/manifest"><metadata><c2pa:manifest>AAAWgmp1bWIAAAAeanVtZGMycGEAEQAQgAAAqgA4m3EDYzJwYQAAABZcanVtYgAAAEdqdW1kYzJtYQARABCAAACqADibcQN1cm46YzJwYTowYjNjMTgzZi1mYTQzLTQzYjItODIyYi01MTc1ODZlMDE0NDEAAAADl2p1bWIAAAApanVtZGMyYXMAEQAQgAAAqgA4m3EDYzJwYS5hc3NlcnRpb25zAAAAALxqdW1iAAAARGp1bWRjYm9yABEAEIAAAKoAOJtxE2MycGEuaW5ncmVkaWVudC52MwAAAAAYYzJzaGguBA7V9By+bs0I13Va++kAAABwY2JvcqNpZGM6Zm9ybWF0bWltYWdlL3N2Zyt4bWxqaW5zdGFuY2VJRHgseG1wOmlpZDoyYTQ2ZGE1NC00NmExLTRlM2MtYWRiNi0yMWI3YTBjOTUyNjNscmVsYXRpb25zaGlwaHBhcmVudE9mAAAB4mp1bWIAAABBanVtZGNib3IAEQAQgAAAqgA4m3ETYzJwYS5hY3Rpb25zLnYyAAAAABhjMnNoZ2zUuVSk/l2KAEVlPOexhAAAAZljYm9yomdhY3Rpb25zgqJmYWN0aW9ua2MycGEub3BlbmVkanBhcmFtZXRlcnOha2luZ3JlZGllbnRzgaJjdXJseC1zZWxmI2p1bWJmPWMycGEuYXNzZXJ0aW9ucy9jMnBhLmluZ3JlZGllbnQudjNkaGFzaFggYo4jUr7WoFiBBSuec/vUPPxUUa7LP1A0+np41qh59iWkZmFjdGlvbngdY29tLmFudGhyb3BpYy5jbGF1ZGUucHJvdmlkZWRqcGFyYW1ldGVyc6F4H2NvbS5hbnRocm9waWMub3JpZ2luLWNvbmZpZGVuY2VndW5rbm93bmtkZXNjcmlwdGlvbnhmQ2xhdWRlIHByb3ZpZGVkIHRoaXMgZmlsZSBhdCB0aGUgcmVxdWVzdCBvZiBhIHVzZXIgYW5kIG1heSBoYXZlIGNyZWF0ZWQgb3IgbW9kaWZpZWQgdGhlIGZpbGUgY29udGVudHMubXNvZnR3YXJlQWdlbnShZG5hbWVmQ2xhdWRlcmFsbEFjdGlvbnNJbmNsdWRlZPUAAADIanVtYgAAAEBqdW1kY2JvcgARABCAAACqADibcRNjMnBhLmhhc2guZGF0YQAAAAAYYzJzaLP1HYx3ALyk7EghtXK4m4oAAACAY2JvcqVjYWxnZnNoYTI1NmNwYWRMAAAAAAAAAAAAAAAAZGhhc2hYIAw9Zs2W+fWQfsNhhioTZ7iUJB9x/I+QMmpRshUZdP2IZG5hbWVuanVtYmYgbWFuaWZlc3RqZXhjbHVzaW9uc4GiZXN0YXJ0GVThZmxlbmd0aBkeBAAAAj5qdW1iAAAAJ2p1bWRjMmNsABEAEIAAAKoAOJtxA2MycGEuY2xhaW0udjIAAAACD2Nib3KlY2FsZ2ZzaGEyNTZpc2lnbmF0dXJleE1zZWxmI2p1bWJmPS9jMnBhL3VybjpjMnBhOjBiM2MxODNmLWZhNDMtNDNiMi04MjJiLTUxNzU4NmUwMTQ0MS9jMnBhLnNpZ25hdHVyZWppbnN0YW5jZUlEeCx4bXA6aWlkOjNhNzMwZWIzLWJkYjUtNGViNS1iMjk3LTI3OThhZjM5NGY0MHJjcmVhdGVkX2Fzc2VydGlvbnODomN1cmx4LXNlbGYjanVtYmY9YzJwYS5hc3NlcnRpb25zL2MycGEuaW5ncmVkaWVudC52M2RoYXNoWCBijiNSvtagWIEFK55z+9Q8/FRRrss/UDT6enjWqHn2JaJjdXJseCpzZWxmI2p1bWJmPWMycGEuYXNzZXJ0aW9ucy9jMnBhLmFjdGlvbnMudjJkaGFzaFggdsQYVNo3J4E9waR12dqCKG19N00TfBm/BmlgnL5yFZuiY3VybHgpc2VsZiNqdW1iZj1jMnBhLmFzc2VydGlvbnMvYzJwYS5oYXNoLmRhdGFkaGFzaFggyqDyrHp+GYJBDHdfjXYUlltIOpnWb3Iz1ecfBKDPKxZ0Y2xhaW1fZ2VuZXJhdG9yX2luZm+jZG5hbWVvQW50aHJvcGljIEZpbGVzZ3ZlcnNpb25lMS4wLjBrc3BlY1ZlcnNpb25lMi40LjAAABA4anVtYgAAAChqdW1kYzJjcwARABCAAACqADibcQNjMnBhLnNpZ25hdHVyZQAAABAIY2JvctKEWQISogEmGCFZAgowggIGMIIBjaADAgECAhRA5aAK7sI50L64g/oGQgU9Z1UTADAKBggqhkjOPQQDAzBJMRcwFQYDVQQKEw5BbnRocm9waWMsIFBCQzEuMCwGA1UEAxMlQW50aHJvcGljIENvbnRlbnQgQ3JlZGVudGlhbHMgUm9vdCBDQTAeFw0yNjA4MDcxODQzNTZaFw0yODA4MDYxOTQzNTZaMEQxFzAVBgNVBAoTDkFudGhyb3BpYywgUEJDMSkwJwYDVQQDEyBBbnRocm9waWMgQ2xhdWRlIENvbnRlbnQgU2lnbmluZzBZMBMGByqGSM49AgEGCCqGSM49AwEHA0IABJh6CmvLUBgFFNU0vUKlOVtE6djd17L5SuwX0LemFisBM3dkd/3cyjxFA3Qo5S46fX0/ihY0VZ7mfb9KF703t5OjWDBWMA4GA1UdDwEB/wQEAwIHgDAVBgNVHSUEDjAMBgorBgEEAYPoXgIBMAwGA1UdEwEB/wQCMAAwHwYDVR0jBBgwFoAUzlHiBIFOZFsj+OPEz5o+nMHXXMIwCgYIKoZIzj0EAwMDZwAwZAIwMXMdFJ4BetLLVY7ORuE9noqbbAZOZn/aArXyTwFAZfKrPzxF2vPoJNf1+UCdg1XGAjBwX1zd9WGqYkqmL5SFqw1QySjr1zJfpJM9+1rdDwSPLMOPOjKuiXjoU/pUUeG9RwmhY3BhZFkNngAAAAAAAAAAAAAAAAAAAAAAAAAAAAAAAAAAAAAAAAAAAAAAAAAAAAAAAAAAAAAAAAAAAAAAAAAAAAAAAAAAAAAAAAAAAAAAAAAAAAAAAAAAAAAAAAAAAAAAAAAAAAAAAAAAAAAAAAAAAAAAAAAAAAAAAAAAAAAAAAAAAAAAAAAAAAAAAAAAAAAAAAAAAAAAAAAAAAAAAAAAAAAAAAAAAAAAAAAAAAAAAAAAAAAAAAAAAAAAAAAAAAAAAAAAAAAAAAAAAAAAAAAAAAAAAAAAAAAAAAAAAAAAAAAAAAAAAAAAAAAAAAAAAAAAAAAAAAAAAAAAAAAAAAAAAAAAAAAAAAAAAAAAAAAAAAAAAAAAAAAAAAAAAAAAAAAAAAAAAAAAAAAAAAAAAAAAAAAAAAAAAAAAAAAAAAAAAAAAAAAAAAAAAAAAAAAAAAAAAAAAAAAAAAAAAAAAAAAAAAAAAAAAAAAAAAAAAAAAAAAAAAAAAAAAAAAAAAAAAAAAAAAAAAAAAAAAAAAAAAAAAAAAAAAAAAAAAAAAAAAAAAAAAAAAAAAAAAAAAAAAAAAAAAAAAAAAAAAAAAAAAAAAAAAAAAAAAAAAAAAAAAAAAAAAAAAAAAAAAAAAAAAAAAAAAAAAAAAAAAAAAAAAAAAAAAAAAAAAAAAAAAAAAAAAAAAAAAAAAAAAAAAAAAAAAAAAAAAAAAAAAAAAAAAAAAAAAAAAAAAAAAAAAAAAAAAAAAAAAAAAAAAAAAAAAAAAAAAAAAAAAAAAAAAAAAAAAAAAAAAAAAAAAAAAAAAAAAAAAAAAAAAAAAAAAAAAAAAAAAAAAAAAAAAAAAAAAAAAAAAAAAAAAAAAAAAAAAAAAAAAAAAAAAAAAAAAAAAAAAAAAAAAAAAAAAAAAAAAAAAAAAAAAAAAAAAAAAAAAAAAAAAAAAAAAAAAAAAAAAAAAAAAAAAAAAAAAAAAAAAAAAAAAAAAAAAAAAAAAAAAAAAAAAAAAAAAAAAAAAAAAAAAAAAAAAAAAAAAAAAAAAAAAAAAAAAAAAAAAAAAAAAAAAAAAAAAAAAAAAAAAAAAAAAAAAAAAAAAAAAAAAAAAAAAAAAAAAAAAAAAAAAAAAAAAAAAAAAAAAAAAAAAAAAAAAAAAAAAAAAAAAAAAAAAAAAAAAAAAAAAAAAAAAAAAAAAAAAAAAAAAAAAAAAAAAAAAAAAAAAAAAAAAAAAAAAAAAAAAAAAAAAAAAAAAAAAAAAAAAAAAAAAAAAAAAAAAAAAAAAAAAAAAAAAAAAAAAAAAAAAAAAAAAAAAAAAAAAAAAAAAAAAAAAAAAAAAAAAAAAAAAAAAAAAAAAAAAAAAAAAAAAAAAAAAAAAAAAAAAAAAAAAAAAAAAAAAAAAAAAAAAAAAAAAAAAAAAAAAAAAAAAAAAAAAAAAAAAAAAAAAAAAAAAAAAAAAAAAAAAAAAAAAAAAAAAAAAAAAAAAAAAAAAAAAAAAAAAAAAAAAAAAAAAAAAAAAAAAAAAAAAAAAAAAAAAAAAAAAAAAAAAAAAAAAAAAAAAAAAAAAAAAAAAAAAAAAAAAAAAAAAAAAAAAAAAAAAAAAAAAAAAAAAAAAAAAAAAAAAAAAAAAAAAAAAAAAAAAAAAAAAAAAAAAAAAAAAAAAAAAAAAAAAAAAAAAAAAAAAAAAAAAAAAAAAAAAAAAAAAAAAAAAAAAAAAAAAAAAAAAAAAAAAAAAAAAAAAAAAAAAAAAAAAAAAAAAAAAAAAAAAAAAAAAAAAAAAAAAAAAAAAAAAAAAAAAAAAAAAAAAAAAAAAAAAAAAAAAAAAAAAAAAAAAAAAAAAAAAAAAAAAAAAAAAAAAAAAAAAAAAAAAAAAAAAAAAAAAAAAAAAAAAAAAAAAAAAAAAAAAAAAAAAAAAAAAAAAAAAAAAAAAAAAAAAAAAAAAAAAAAAAAAAAAAAAAAAAAAAAAAAAAAAAAAAAAAAAAAAAAAAAAAAAAAAAAAAAAAAAAAAAAAAAAAAAAAAAAAAAAAAAAAAAAAAAAAAAAAAAAAAAAAAAAAAAAAAAAAAAAAAAAAAAAAAAAAAAAAAAAAAAAAAAAAAAAAAAAAAAAAAAAAAAAAAAAAAAAAAAAAAAAAAAAAAAAAAAAAAAAAAAAAAAAAAAAAAAAAAAAAAAAAAAAAAAAAAAAAAAAAAAAAAAAAAAAAAAAAAAAAAAAAAAAAAAAAAAAAAAAAAAAAAAAAAAAAAAAAAAAAAAAAAAAAAAAAAAAAAAAAAAAAAAAAAAAAAAAAAAAAAAAAAAAAAAAAAAAAAAAAAAAAAAAAAAAAAAAAAAAAAAAAAAAAAAAAAAAAAAAAAAAAAAAAAAAAAAAAAAAAAAAAAAAAAAAAAAAAAAAAAAAAAAAAAAAAAAAAAAAAAAAAAAAAAAAAAAAAAAAAAAAAAAAAAAAAAAAAAAAAAAAAAAAAAAAAAAAAAAAAAAAAAAAAAAAAAAAAAAAAAAAAAAAAAAAAAAAAAAAAAAAAAAAAAAAAAAAAAAAAAAAAAAAAAAAAAAAAAAAAAAAAAAAAAAAAAAAAAAAAAAAAAAAAAAAAAAAAAAAAAAAAAAAAAAAAAAAAAAAAAAAAAAAAAAAAAAAAAAAAAAAAAAAAAAAAAAAAAAAAAAAAAAAAAAAAAAAAAAAAAAAAAAAAAAAAAAAAAAAAAAAAAAAAAAAAAAAAAAAAAAAAAAAAAAAAAAAAAAAAAAAAAAAAAAAAAAAAAAAAAAAAAAAAAAAAAAAAAAAAAAAAAAAAAAAAAAAAAAAAAAAAAAAAAAAAAAAAAAAAAAAAAAAAAAAAAAAAAAAAAAAAAAAAAAAAAAAAAAAAAAAAAAAAAAAAAAAAAAAAAAAAAAAAAAAAAAAAAAAAAAAAAAAAAAAAAAAAAAAAAAAAAAAAAAAAAAAAAAAAAAAAAAAAAAAAAAAAAAAAAAAAAAAAAAAAAAAAAAAAAAAAAAAAAAAAAAAAAAAAAAAAAAAAAAAAAAAAAAAAAAAAAAAAAAAAAAAAAAAAAAAAAAAAAAAAAAAAAAAAAAAAAAAAAAAAAAAAAAAAAAAAAAAAAAAAAAAAAAAAAAAAAAAAAAAAAAAAAAAAAAAAAAAAAAAAAAAAAAAAAAAAAAAAAAAAAAAAAAAAAAAAAAAAAAAAAAAAAAAAAAAAAAAAAAAAAAAAAAAAAAAAAAAAAAAAAAAAAAAAAAAAAAAAAAAAAAAAAAAAAAAAAAAAAAAAAAAAAAAAAAAAAAAAAAAAAAAAAAAAAAAAAAAAAAAAAAAAAAAAAAAAAAAAAAAAAAAAAAAAAAAAAAAAAAAAAAAAAAAAAAAAAAAAAAAAAAAAAAAAAAAAAAAAAAAAAAAAAAAAAAAAAAAAAAAAAAAAAAAAAAAAAAAAAAAAAAAAAAAAAAAAAAAAAAAAAAAAAAAAAAAAAAAAAAAAAAAAAAAAAAAAAAAAAAAAAAAAAAAAAAAAAAAAAAAAAAAAAAAAAAAAAAAAAAAAAAAAAAAAAAAAAAAAAAAAAAAAAAAAAAAAAAAAAAAAAAAAAAAAAAAAAAAAAAAAAAAAAAAAAAAAAAAAAAAAAAAAAAAAAAAAAAAAAAAAAAAAAAAAAAAAAAAAAAAAAAAAAAAAAAAAAAAAAAAAAAAAAAAAAAAAAAAAAAAAAAAAAAAAAAAAAAAAAAAAAAAAAAAAAAAAAAAAAAAAAAAAAAAAAAAAAAAAAAAAAAAAAAAAAAAAAAAAAAAAAAAAAAAAAAAAAAAAAAAAAAAAAAAAAAAAAAAAAAAAAAAAAAAAAAAAAAAAAAAAAAAAAAAAAAAAAAAAAAAAAAAAAAAAAAAAAAAAAAAAAAAAAAAAAAAAAAAAAAAAAAAAAAAAAAAAAAAAAAAAAAAAAAAAAAAAAAAAAAAAAAAAAAAAAAAAAAAAAAAAAAAAAAAAAAAAAAAAAAAAAAAAAAAAAAAAAAAAAAAAAAAAAAAAAAAAAAAAAAAAAAAAAAAAAAAAAAAAAAAAAAAAAAAAAAAAAAAAAAAAAAAAAAAAAAAAAAAAAAAAAAAAAAAAAAAAAAAAAAAAAAAAAAAAAAAAAAAAAAAAAAAAAAAAAAAAAAAAAAAAAAAAAAAAAAAAAAAAAAAAAAAAAAAAAAAAAAAAAAAAAAAAAAAAAAAAAAAAAAAAAAAAAAAAAAAAAAAAAAAAAAAAAAAAAAAAAAAAAAAAAAAAAAAAAAAAAAAAAAAAAAAAAAAAAAAAAAAAAAAAAAAAAAAAAAAAAAAAAAAAAAAAAAAAAAAAAAAAAAAAAAAAAAAAAAAAAAAAAAAAAAAAAAAAAAAAAAAAAAAAAAAAAAAAAAAAAAAAAAAAAAAAAAAAAAAAAAAAAAAAAAAAAAAAAAAAAAAAAAAAAAAAAAAAAAAAAAAAAAAAAAAAAAAAAAAAAAAAAAAAAAAAAAAAAAAAAAAAAAAAAAAAAAAAAAAAAAAAAAAAAAAAAAAAAAAAAAAAAAAAAAAAAAAAAAAAAAAAAAAAAAAAAAAAAAAAAAAAAAAAAAAAAAAAAAAAAAAAAAAAAAAAAAAAAAAAAAAAAAAAAAAAAAAAAAAAAAAAAAAAAAAAAAAAAAAAAAAAAAAAAAAAAAAAAAAAAAAAAAAAAAAAAAAAAAAAAAAAAAAAAAAAAAAAAAAAAAAAAAAAAAAAAAAAAAAAPZYQKNtT8E9FO//R7B7Y/47nz1ixz+0NF7wtq9n6dJbnzM+JiM6nD9UsOrwFslFVq3UO3+XndTAcKUo3ll7i6/ZpyQ=</c2pa:manifest></metadata>
<title id="fig-bls-t">Periodograma BLS de WASP-18</title>
<desc id="fig-bls-d">Potência BLS normalizada em função do período de teste. O pico mais alto está em 0,9415 dia; picos menores aparecem em múltiplos e frações desse período.</desc>
<line class="sg-grid" x1="70" x2="696" y1="248.0" y2="248.0"/>
<text class="sg-tick" x="62" y="252.0" text-anchor="end">0,00</text>
<line class="sg-grid" x1="70" x2="696" y1="194.8" y2="194.8"/>
<text class="sg-tick" x="62" y="198.8" text-anchor="end">0,25</text>
<line class="sg-grid" x1="70" x2="696" y1="141.5" y2="141.5"/>
<text class="sg-tick" x="62" y="145.5" text-anchor="end">0,50</text>
<line class="sg-grid" x1="70" x2="696" y1="88.3" y2="88.3"/>
<text class="sg-tick" x="62" y="92.3" text-anchor="end">0,75</text>
<line class="sg-grid" x1="70" x2="696" y1="35.0" y2="35.0"/>
<text class="sg-tick" x="62" y="39.0" text-anchor="end">1,00</text>
<line class="sg-tickmark" x1="70.0" x2="70.0" y1="248" y2="253"/>
<text class="sg-tick" x="70.0" y="268" text-anchor="middle">0,3</text>
<line class="sg-tickmark" x1="183.7" x2="183.7" y1="248" y2="253"/>
<text class="sg-tick" x="183.7" y="268" text-anchor="middle">0,5</text>
<line class="sg-tickmark" x1="337.9" x2="337.9" y1="248" y2="253"/>
<text class="sg-tick" x="337.9" y="268" text-anchor="middle">1</text>
<line class="sg-tickmark" x1="492.1" x2="492.1" y1="248" y2="253"/>
<text class="sg-tick" x="492.1" y="268" text-anchor="middle">2</text>
<line class="sg-tickmark" x1="582.3" x2="582.3" y1="248" y2="253"/>
<text class="sg-tick" x="582.3" y="268" text-anchor="middle">3</text>
<line class="sg-tickmark" x1="696.0" x2="696.0" y1="248" y2="253"/>
<text class="sg-tick" x="696.0" y="268" text-anchor="middle">5</text>
<line class="sg-axis" x1="70" x2="696" y1="248" y2="248"/>
<text class="sg-label" x="383.0" y="290" text-anchor="middle">Período de teste (dias, escala logarítmica)</text>
<text class="sg-label" transform="translate(16 133.0) rotate(-90)" text-anchor="middle">Potência BLS (normalizada)</text>
<polyline class="sg-line" points="70,246.9 71,246.8 72,247.3 73,247.6 74,247.5 75,246.1 76,244.8 77,246.1 78,229.2 79,187.7 80,201.1 81,228.2 82,246.6 83,244.4 84,244.7 85,247.5 86,247.1 87,247.6 88,246.2 89,246.8 90,247.6 91,247.5 92,247.2 93,247.0 94,247.1 95,247.0 96,247.6 97,247.7 98,247.7 99,247.1 100,247.4 101,247.2 102,247.3 103,247.8 104,247.3 105,246.1 106,245.8 107,247.5 108,247.6 109,247.5 110,247.7 111,247.5 112,247.6 113,247.6 114,247.6 115,246.5 116,247.7 117,247.2 118,246.9 119,243.8 120,233.2 121,241.6 122,246.8 123,247.2 124,247.5 125,247.5 126,247.5 127,247.8 128,247.7 129,247.4 130,247.3 131,247.4 132,247.6 133,247.7 134,247.6 135,245.0 136,245.0 137,247.3 138,247.7 139,247.7 140,247.2 141,247.6 142,247.6 143,246.6 144,246.6 145,247.5 146,247.4 147,247.6 148,247.7 149,247.5 150,246.4 151,247.2 152,247.5 153,247.6 154,247.7 155,247.4 156,247.2 157,246.8 158,247.0 159,247.7 160,247.2 161,247.3 162,247.7 163,246.6 164,244.2 165,243.1 166,246.4 167,243.8 168,219.5 169,138.0 170,135.8 171,186.2 172,238.0 173,246.0 174,244.2 175,243.4 176,246.0 177,247.4 178,247.4 179,247.5 180,247.3 181,247.5 182,247.1 183,246.2 184,247.3 185,247.5 186,247.7 187,247.7 188,247.7 189,247.3 190,247.3 191,247.0 192,247.5 193,246.8 194,247.4 195,247.6 196,247.5 197,247.6 198,247.6 199,244.9 200,244.9 201,247.3 202,247.4 203,247.5 204,247.6 205,247.2 206,247.5 207,247.4 208,246.9 209,245.6 210,240.9 211,241.5 212,247.4 213,247.2 214,247.2 215,247.4 216,247.4 217,247.6 218,247.5 219,246.8 220,246.9 221,247.5 222,247.6 223,247.7 224,247.5 225,247.2 226,247.5 227,247.6 228,247.5 229,247.5 230,246.5 231,246.5 232,244.7 233,224.9 234,224.2 235,236.4 236,246.9 237,246.6 238,246.8 239,247.6 240,247.4 241,247.6 242,247.3 243,247.5 244,247.7 245,247.7 246,247.5 247,247.5 248,247.3 249,246.3 250,246.8 251,247.4 252,247.5 253,247.3 254,247.5 255,247.4 256,247.6 257,247.0 258,247.1 259,239.0 260,235.8 261,240.7 262,246.8 263,246.5 264,247.6 265,247.5 266,247.4 267,247.4 268,247.6 269,247.2 270,247.6 271,247.3 272,247.2 273,246.2 274,241.5 275,241.7 276,247.3 277,247.5 278,247.6 279,247.4 280,247.5 281,247.6 282,247.5 283,245.3 284,245.1 285,247.4 286,247.4 287,247.4 288,247.5 289,246.7 290,246.6 291,247.6 292,247.6 293,247.6 294,246.4 295,247.3 296,247.7 297,247.4 298,247.3 299,247.2 300,247.0 301,247.0 302,247.5 303,247.6 304,247.4 305,247.4 306,247.4 307,247.3 308,247.4 309,247.7 310,247.6 311,247.5 312,246.8 313,246.6 314,245.3 315,245.2 316,245.7 317,247.6 318,246.7 319,245.2 320,242.0 321,233.5 322,200.7 323,71.0 324,35.0 325,95.0 326,207.2 327,234.2 328,242.4 329,245.1 330,246.8 331,247.3 332,246.6 333,245.5 334,245.9 335,246.6 336,247.2 337,247.2 338,247.6 339,247.7 340,247.8 341,247.6 342,247.6 343,246.7 344,247.4 345,247.3 346,247.5 347,247.6 348,247.6 349,247.3 350,246.6 351,246.9 352,247.5 353,246.6 354,246.6 355,247.6 356,247.6 357,247.3 358,246.2 359,246.4 360,247.4 361,247.4 362,247.4 363,247.1 364,244.6 365,244.6 366,247.2 367,247.5 368,247.3 369,247.4 370,247.4 371,247.2 372,246.4 373,241.3 374,241.3 375,245.7 376,247.4 377,247.4 378,247.6 379,246.7 380,246.1 381,247.0 382,247.5 383,247.6 384,247.1 385,247.2 386,245.9 387,237.6 388,233.2 389,238.8 390,246.5 391,246.6 392,247.0 393,247.5 394,247.2 395,246.7 396,247.6 397,247.1 398,246.0 399,245.6 400,246.8 401,247.3 402,247.3 403,247.1 404,247.1 405,247.2 406,247.1 407,247.7 408,247.0 409,246.4 410,246.6 411,247.0 412,243.1 413,226.3 414,211.2 415,217.2 416,238.1 417,246.5 418,247.4 419,246.8 420,247.1 421,247.6 422,247.7 423,247.3 424,246.8 425,246.8 426,247.3 427,247.0 428,245.0 429,244.9 430,247.1 431,247.6 432,246.9 433,247.4 434,247.2 435,246.9 436,244.8 437,237.6 438,237.2 439,243.6 440,247.1 441,246.8 442,247.4 443,247.0 444,246.5 445,247.1 446,247.0 447,246.9 448,244.0 449,243.9 450,246.9 451,247.2 452,247.1 453,247.2 454,244.5 455,244.1 456,246.7 457,247.5 458,246.6 459,246.1 460,247.0 461,246.7 462,246.5 463,247.5 464,247.2 465,247.5 466,247.4 467,247.4 468,246.9 469,246.6 470,246.7 471,247.7 472,247.4 473,246.7 474,245.7 475,242.5 476,231.8 477,189.2 478,148.0 479,162.2 480,218.8 481,238.8 482,244.0 483,246.5 484,247.1 485,247.5 486,247.4 487,246.6 488,246.9 489,246.9 490,247.3 491,246.9 492,247.1 493,247.2 494,247.2 495,247.2 496,246.1 497,246.8 498,247.1 499,245.4 500,245.4 501,247.2 502,247.2 503,246.3 504,241.9 505,242.0 506,246.7 507,247.1 508,247.1 509,247.1 510,247.1 511,246.0 512,241.8 513,241.9 514,245.6 515,246.9 516,246.6 517,246.7 518,245.2 519,244.9 520,246.7 521,246.9 522,247.0 523,246.7 524,246.9 525,247.0 526,242.0 527,229.0 528,224.6 529,233.1 530,244.4 531,247.3 532,246.8 533,246.7 534,246.7 535,247.0 536,245.7 537,245.6 538,246.9 539,246.8 540,247.3 541,243.9 542,240.0 543,240.8 544,246.1 545,246.8 546,246.7 547,247.0 548,245.8 549,243.9 550,244.8 551,246.5 552,246.9 553,245.8 554,246.8 555,246.6 556,246.3 557,246.5 558,246.4 559,246.3 560,246.4 561,247.3 562,247.5 563,246.9 564,246.1 565,244.2 566,239.6 567,215.1 568,177.6 569,179.2 570,215.4 571,240.4 572,244.4 573,246.0 574,247.0 575,247.6 576,246.9 577,246.1 578,246.1 579,246.1 580,246.0 581,245.8 582,245.9 583,246.1 584,247.0 585,246.5 586,243.7 587,244.2 588,246.3 589,246.1 590,246.9 591,243.5 592,242.5 593,244.8 594,246.4 595,246.1 596,245.8 597,246.2 598,246.0 599,246.5 600,247.0 601,243.0 602,235.6 603,235.3 604,240.6 605,246.2 606,247.3 607,245.8 608,246.1 609,245.7 610,246.6 611,247.2 612,244.1 613,241.3 614,242.7 615,246.8 616,245.9 617,245.6 618,244.9 619,245.4 620,245.9 621,244.9 622,245.9 623,245.3 624,245.8 625,246.4 626,247.4 627,247.0 628,246.7 629,245.2 630,241.2 631,223.6 632,193.3 633,194.0 634,226.0 635,241.9 636,244.8 637,246.5 638,247.2 639,247.4 640,247.5 641,245.1 642,245.1 643,244.9 644,245.2 645,245.5 646,244.6 647,245.9 648,247.4 649,245.5 650,241.7 651,242.4 652,246.9 653,245.0 654,244.8 655,247.0 656,247.0 657,243.7 658,231.4 659,230.7 660,239.4 661,246.6 662,247.4 663,244.9 664,244.9 665,246.8 666,244.9 667,244.2 668,245.8 669,247.3 670,243.7 671,243.7 672,245.5 673,244.0 674,245.8 675,247.2 676,246.3 677,246.5 678,246.0 679,244.2 680,239.3 681,219.5 682,207.0 683,214.3 684,235.4 685,244.8 686,246.2 687,247.0 688,246.8 689,247.0 690,245.2 691,244.6 692,244.4 693,242.9 694,245.3 695,245.9" style="stroke:#5B3FBF"/>
<circle class="sg-mark" cx="324.5" cy="35.0" r="4.5" style="fill:#5B3FBF"/>
<text class="sg-direct" x="334.5" y="39.0">P = 0,9415 d</text>
<text class="sg-note" x="170.2" y="127.8" text-anchor="middle">P/2</text>
<text class="sg-note" x="478.7" y="140.0" text-anchor="middle">2P</text>
<text class="sg-note" x="568.9" y="169.6" text-anchor="middle">3P</text>
</svg>
